<?xml version="1.0" standalone="no"?>
<!DOCTYPE svg PUBLIC "-//W3C//DTD SVG 20010904//EN"
 "http://www.w3.org/TR/2001/REC-SVG-20010904/DTD/svg10.dtd">
<svg version="1.0" xmlns="http://www.w3.org/2000/svg"
 width="2220.000000pt" height="600.000000pt" viewBox="0 0 2220.000000 600.000000"
 preserveAspectRatio="xMidYMid meet">

<g transform="translate(0.000000,600.000000) scale(0.100000,-0.100000)"
fill="#000000" stroke="none">
<path d="M8848 4719 c-530 -51 -1010 -332 -1283 -752 -189 -292 -274 -616
-262 -1010 11 -405 126 -721 366 -1011 205 -248 526 -439 886 -530 198 -50
518 -64 722 -33 757 119 1288 614 1435 1339 20 100 23 141 23 363 -1 222 -3
262 -23 355 -48 218 -125 406 -240 580 -77 118 -288 327 -412 408 -346 228
-780 333 -1212 291z m247 -277 c279 -96 523 -394 660 -804 91 -274 128 -514
128 -843 0 -238 -14 -365 -58 -533 -89 -337 -267 -553 -520 -628 -92 -28 -238
-23 -340 10 -388 124 -680 589 -782 1246 -26 165 -26 663 0 797 85 444 283
709 582 779 91 21 227 11 330 -24z"/>
<path d="M5622 4277 c-15 -155 -34 -243 -82 -388 -142 -428 -453 -778 -926
-1042 -147 -82 -318 -154 -626 -262 -527 -186 -754 -278 -1007 -405 -574 -288
-842 -609 -892 -1067 -42 -393 123 -752 444 -964 177 -116 325 -154 557 -144
420 19 760 99 1147 272 l103 45 -79 27 c-216 75 -367 235 -421 447 -23 91 -25
154 -6 244 29 135 106 267 233 394 147 149 274 237 570 397 418 226 668 397
877 599 312 301 457 599 482 992 16 255 -85 591 -255 844 -32 49 -70 99 -83
111 l-24 23 -12 -123z"/>
<path d="M20980 3801 c-176 -38 -301 -110 -427 -246 -94 -100 -121 -115 -158
-91 -36 23 -53 69 -64 165 -5 45 -16 93 -26 107 -23 36 -90 64 -153 64 -45 0
-779 -120 -834 -136 -15 -5 -18 -18 -18 -93 l0 -88 88 -5 c138 -8 197 -48 228
-153 13 -45 14 -154 12 -786 l-3 -734 -29 -58 c-18 -37 -43 -69 -68 -87 -38
-28 -147 -60 -202 -60 -26 0 -26 0 -26 -90 l0 -90 680 0 680 0 0 89 0 89 -66
7 c-98 10 -179 55 -215 121 -46 81 -51 154 -47 710 4 476 5 503 26 579 31 114
78 201 143 266 170 170 444 167 608 -6 57 -60 101 -143 133 -247 21 -70 22
-93 28 -668 7 -645 5 -622 65 -740 53 -105 170 -189 304 -220 30 -7 98 -13
151 -13 151 1 266 38 343 112 52 49 67 81 67 141 l0 50 -52 -5 c-73 -8 -115
14 -148 80 l-25 50 -6 665 c-5 622 -7 671 -26 755 -27 116 -70 227 -117 297
-83 125 -222 222 -376 263 -101 27 -361 30 -470 6z"/>
<path d="M12180 3800 c-393 -49 -718 -222 -921 -489 -143 -188 -230 -466 -229
-731 3 -610 398 -1062 1030 -1176 117 -21 358 -21 479 0 114 21 232 57 330
102 198 91 399 271 456 408 l15 34 -69 47 -69 47 -70 -73 c-123 -130 -248
-188 -422 -196 -428 -21 -774 263 -889 727 -73 299 -48 636 62 845 100 187
316 283 520 230 151 -39 215 -139 252 -395 20 -135 37 -194 74 -252 62 -98
167 -144 305 -135 95 6 141 24 197 74 63 57 92 122 97 222 9 157 -40 280 -161
408 -142 150 -322 241 -568 288 -103 19 -318 27 -419 15z"/>
<path d="M14764 3800 c-461 -49 -840 -288 -1024 -646 -137 -267 -168 -627 -80
-944 51 -183 184 -395 326 -515 518 -440 1416 -406 1873 70 43 45 86 96 95
112 15 30 14 30 -27 69 -23 22 -54 50 -69 63 l-27 24 -72 -67 c-160 -148 -404
-222 -648 -197 -416 43 -701 282 -701 588 0 88 19 137 62 159 20 10 99 19 266
29 280 18 505 39 628 60 368 64 524 209 524 484 -1 262 -139 466 -405 596
-208 102 -460 142 -721 115z m239 -243 c157 -71 239 -230 241 -462 1 -133 -16
-186 -75 -240 -80 -72 -171 -95 -474 -121 -190 -16 -203 -16 -237 0 -49 24
-68 55 -79 134 -11 75 2 229 27 326 36 141 132 285 228 341 104 61 264 70 369
22z"/>
<path d="M17271 3800 c-180 -23 -399 -107 -538 -206 -237 -169 -400 -441 -460
-768 -26 -141 -24 -428 5 -574 53 -266 145 -445 311 -604 93 -91 171 -143 279
-187 205 -85 462 -98 652 -35 130 44 224 101 398 241 29 24 66 50 83 59 66 34
135 -8 184 -112 71 -150 216 -225 435 -225 168 -1 278 39 363 130 45 48 47 52
47 110 l0 59 -57 -5 c-99 -8 -145 41 -164 170 -5 34 -9 470 -9 969 0 643 -3
914 -11 931 -23 50 -104 62 -160 24 -18 -12 -69 -66 -114 -120 -93 -114 -139
-147 -207 -147 -58 0 -70 5 -239 102 -160 92 -280 142 -401 169 -104 23 -293
32 -397 19z m351 -231 c205 -69 355 -262 428 -552 41 -164 53 -304 47 -539 -4
-174 -8 -217 -30 -299 -57 -216 -163 -342 -323 -384 -108 -28 -224 -13 -328
43 -74 39 -193 164 -245 256 -129 227 -189 525 -169 841 20 331 152 568 356
641 58 21 192 17 264 -7z"/>
<path d="M5829 2224 c-165 -169 -390 -316 -918 -599 -415 -222 -487 -268 -590
-380 -67 -74 -96 -126 -117 -204 -24 -95 -4 -189 57 -275 119 -165 412 -187
649 -49 80 47 281 245 403 398 215 268 375 553 488 867 44 123 93 288 87 293
-2 3 -29 -21 -59 -51z"/>
</g>
</svg>
